<svg width="24" height="26" viewBox="0 0 24 26" fill="none" xmlns="http://www.w3.org/2000/svg">
<path d="M8.25003 0.50375V0.5H21.9975C22.6875 0.5 23.25 1.06875 23.25 1.74V24.26C23.2497 24.589 23.1188 24.9044 22.886 25.1369C22.6533 25.3694 22.3378 25.5 22.0088 25.5H1.99128C1.82713 25.4989 1.66481 25.4654 1.51359 25.4015C1.36237 25.3376 1.22521 25.2446 1.10995 25.1277C0.99469 25.0108 0.90358 24.8724 0.841825 24.7203C0.780069 24.5682 0.748878 24.4054 0.750031 24.2412V8L8.25003 0.50375ZM4.28753 8H8.25003V4.0375L4.28753 8ZM10.75 3V9.25C10.75 9.58152 10.6183 9.89946 10.3839 10.1339C10.1495 10.3683 9.83155 10.5 9.50003 10.5H3.25003V23H20.75V3H10.75Z" fill="white"/>
</svg>
